<svg width="546" height="187" viewBox="0 0 546 187" fill="none" xmlns="http://www.w3.org/2000/svg">
<path d="M4.5 110V40.1818H34.7727C40.0909 40.1818 44.5568 40.8977 48.1705 42.3295C51.8068 43.7614 54.5455 45.7841 56.3864 48.3977C58.25 51.0114 59.1818 54.0909 59.1818 57.6364C59.1818 60.2045 58.6136 62.5455 57.4773 64.6591C56.3636 66.7727 54.7955 68.5455 52.7727 69.9773C50.75 71.3864 48.3864 72.3636 45.6818 72.9091V73.5909C48.6818 73.7045 51.4091 74.4659 53.8636 75.875C56.3182 77.2614 58.2727 79.1818 59.7273 81.6364C61.1818 84.0682 61.9091 86.9318 61.9091 90.2273C61.9091 94.0455 60.9091 97.4432 58.9091 100.42C56.9318 103.398 54.1136 105.739 50.4545 107.443C46.7955 109.148 42.4318 110 37.3636 110H4.5ZM23.4545 94.8636H32.3182C35.5 94.8636 37.8864 94.2727 39.4773 93.0909C41.0682 91.8864 41.8636 90.1136 41.8636 87.7727C41.8636 86.1364 41.4886 84.75 40.7386 83.6136C39.9886 82.4773 38.9205 81.6136 37.5341 81.0227C36.1705 80.4318 34.5227 80.1364 32.5909 80.1364H23.4545V94.8636ZM23.4545 68.4091H31.2273C32.8864 68.4091 34.3523 68.1477 35.625 67.625C36.8977 67.1023 37.8864 66.3523 38.5909 65.375C39.3182 64.375 39.6818 63.1591 39.6818 61.7273C39.6818 59.5682 38.9091 57.9205 37.3636 56.7841C35.8182 55.625 33.8636 55.0455 31.5 55.0455H23.4545V68.4091ZM68.625 110V40.1818H118.943V55.4545H87.5795V67.4545H116.352V82.7273H87.5795V94.7273H118.807V110H68.625ZM126.435 55.4545V40.1818H187.116V55.4545H166.116V110H147.435V55.4545H126.435ZM236.31 63.2273C236.014 62.0227 235.548 60.9659 234.912 60.0568C234.276 59.125 233.48 58.3409 232.526 57.7045C231.594 57.0455 230.503 56.5568 229.253 56.2386C228.026 55.8977 226.673 55.7273 225.196 55.7273C222.014 55.7273 219.298 56.4886 217.048 58.0114C214.821 59.5341 213.116 61.7273 211.935 64.5909C210.776 67.4545 210.196 70.9091 210.196 74.9545C210.196 79.0455 210.753 82.5455 211.866 85.4545C212.98 88.3636 214.639 90.5909 216.844 92.1364C219.048 93.6818 221.787 94.4545 225.06 94.4545C227.946 94.4545 230.344 94.0341 232.253 93.1932C234.185 92.3523 235.628 91.1591 236.582 89.6136C237.537 88.0682 238.014 86.25 238.014 84.1591L241.287 84.5H225.332V71H256.287V80.6818C256.287 87.0455 254.935 92.4886 252.23 97.0114C249.548 101.511 245.844 104.966 241.116 107.375C236.412 109.761 231.014 110.955 224.923 110.955C218.128 110.955 212.162 109.511 207.026 106.625C201.889 103.739 197.878 99.625 194.991 94.2841C192.128 88.9432 190.696 82.5909 190.696 75.2273C190.696 69.4545 191.571 64.3409 193.321 59.8864C195.094 55.4318 197.548 51.6705 200.685 48.6023C203.821 45.5114 207.446 43.1818 211.56 41.6136C215.673 40.0227 220.082 39.2273 224.787 39.2273C228.923 39.2273 232.764 39.8182 236.31 41C239.878 42.1591 243.026 43.8182 245.753 45.9773C248.503 48.1136 250.719 50.6477 252.401 53.5795C254.082 56.5114 255.105 59.7273 255.469 63.2273H236.31ZM265.125 110V40.1818H295.261C300.443 40.1818 304.977 41.125 308.864 43.0114C312.75 44.8977 315.773 47.6136 317.932 51.1591C320.091 54.7045 321.17 58.9545 321.17 63.9091C321.17 68.9091 320.057 73.125 317.83 76.5568C315.625 79.9886 312.523 82.5795 308.523 84.3295C304.545 86.0795 299.898 86.9545 294.58 86.9545H276.58V72.2273H290.761C292.989 72.2273 294.886 71.9545 296.455 71.4091C298.045 70.8409 299.261 69.9432 300.102 68.7159C300.966 67.4886 301.398 65.8864 301.398 63.9091C301.398 61.9091 300.966 60.2841 300.102 59.0341C299.261 57.7614 298.045 56.8295 296.455 56.2386C294.886 55.625 292.989 55.3182 290.761 55.3182H284.08V110H265.125ZM306.034 77.9545L323.489 110H302.898L285.852 77.9545H306.034ZM348.205 40.1818V110H329.25V40.1818H348.205ZM384.051 110H357.188V40.1818H383.778C390.96 40.1818 397.165 41.5795 402.392 44.375C407.642 47.1477 411.688 51.1477 414.528 56.375C417.392 61.5795 418.824 67.8182 418.824 75.0909C418.824 82.3636 417.403 88.6136 414.562 93.8409C411.722 99.0455 407.699 103.045 402.494 105.841C397.29 108.614 391.142 110 384.051 110ZM376.142 93.9091H383.369C386.824 93.9091 389.767 93.3523 392.199 92.2386C394.653 91.125 396.517 89.2045 397.79 86.4773C399.085 83.75 399.733 79.9545 399.733 75.0909C399.733 70.2273 399.074 66.4318 397.756 63.7045C396.46 60.9773 394.551 59.0568 392.028 57.9432C389.528 56.8295 386.46 56.2727 382.824 56.2727H376.142V93.9091Z" fill="#FA5757"/>
<path d="M282.96 170.609C281.8 170.975 280.663 171.199 279.548 171.282C278.389 171.648 277.312 171.853 276.32 171.898C275.388 171.923 274.624 170.99 274.028 169.097C273.797 168.365 273.717 167.686 273.788 167.059C273.39 166.648 273.075 166.076 272.844 165.344C272.402 163.94 272.487 162.403 273.102 160.733C273.899 157.73 275.011 154.125 276.436 149.918C277.861 145.71 279.481 141.274 281.298 136.607C283.096 131.88 284.93 127.376 286.802 123.095C288.358 119.517 289.443 116.894 290.058 115.224C290.733 113.534 291.003 112.476 290.868 112.049C290.547 111.882 290.278 111.665 290.059 111.398C289.902 111.112 289.785 110.847 289.708 110.603C289.592 110.237 289.527 109.922 289.511 109.659C289.476 109.334 289.439 109.111 289.4 108.989L289.169 108.256C289.054 107.89 288.988 107.575 288.972 107.312C288.998 106.968 289.225 106.729 289.652 106.594C289.774 106.556 289.906 106.548 290.047 106.57C290.23 106.513 290.423 106.485 290.625 106.489C291.496 106.483 292.657 106.653 294.108 107.001C295.621 107.329 296.98 107.807 298.184 108.434C299.388 109.061 299.961 109.92 299.903 111.012C300.095 111.623 299.992 112.36 299.593 113.224C299.195 114.087 298.454 115.462 297.37 117.347C296.268 119.171 294.776 121.889 292.896 125.502C290.221 130.64 287.853 135.581 285.792 140.324C283.712 145.006 281.615 150.063 279.502 155.493C279.92 154.691 280.703 153.236 281.851 151.129C282.979 148.962 284.294 146.534 285.795 143.846C287.357 141.139 288.969 138.483 290.631 135.879C292.354 133.256 293.96 131.005 295.448 129.126C296.977 127.168 298.293 125.914 299.395 125.365C300.616 124.98 301.66 124.886 302.527 125.082C303.394 125.279 304.051 125.977 304.497 127.179C305.403 127.497 306.019 128.175 306.346 129.213C306.712 130.373 306.738 131.841 306.426 133.617C306.175 135.374 305.7 137.167 305.002 138.998C304.285 140.768 303.531 142.314 302.741 143.637C302.699 143.717 302.847 143.335 303.184 142.49C303.522 141.646 303.903 140.62 304.328 139.412C304.752 138.205 305.106 136.986 305.389 135.756C305.672 134.526 305.739 133.565 305.588 132.874C305.408 134.005 305.06 135.457 304.545 137.23C304.092 138.983 303.579 140.655 303.006 142.245C302.495 143.815 302.081 144.952 301.766 145.655C300.654 148.086 299.434 150.283 298.106 152.245C296.76 154.146 295.77 155.901 295.136 157.51C295.654 156.81 296.327 155.859 297.156 154.658C297.966 153.396 298.818 152.054 299.712 150.631C300.586 149.148 301.357 147.764 302.026 146.479C302.042 146.743 301.778 147.396 301.235 148.44C300.673 149.422 299.975 150.615 299.142 152.019C298.352 153.342 297.53 154.674 296.679 156.017C295.869 157.279 295.173 158.37 294.591 159.292C293.99 160.153 293.619 160.572 293.477 160.549C291.838 163.012 290.255 165.122 288.729 166.878C287.202 168.634 285.279 169.878 282.96 170.609ZM277.044 168.448C278.612 167.887 280.236 166.972 281.916 165.704C283.639 164.356 285.191 162.893 286.573 161.317C287.955 159.74 288.98 158.31 289.649 157.025C291.07 154.296 292.394 151.261 293.623 147.921C294.851 144.581 295.876 141.339 296.696 138.195C297.517 135.05 297.964 132.426 298.039 130.322C297.258 131.038 296.373 131.955 295.383 133.072C294.435 134.109 293.527 135.167 292.66 136.246C291.853 137.306 291.212 138.145 290.736 138.765C288.978 141.064 287.379 143.548 285.939 146.217C284.559 148.866 283.323 151.437 282.23 153.929C281.198 156.402 280.373 158.574 279.755 160.447C279.18 162.239 278.876 163.509 278.843 164.257C278.856 164.723 278.888 165.25 278.939 165.838C279.032 166.345 278.681 166.724 277.888 166.974C277.339 167.147 276.69 167.218 275.941 167.185C275.739 167.182 275.537 167.179 275.334 167.176C275.174 167.092 274.992 167.048 274.79 167.045C275.127 167.476 275.485 167.866 275.864 168.216C276.284 168.486 276.678 168.564 277.044 168.448ZM320.661 157.011C319.807 157.28 318.833 157.386 317.741 157.328C316.729 157.311 315.751 157.083 314.807 156.642C313.863 156.202 312.752 155.445 311.474 154.371C310.238 153.218 309.408 151.969 308.985 150.627C308.812 150.077 308.749 149.56 308.798 149.075C309.096 143.21 310.759 137.418 313.787 131.698C316.796 125.918 321.003 120.532 326.408 115.539C327.263 115.27 328.254 115.327 329.381 115.709C330.489 116.031 331.493 116.553 332.392 117.277L334.213 117.306C333.94 116.654 333.601 116.325 333.197 116.318C332.773 116.25 332.513 116.064 332.416 115.759C332.365 115.171 332.666 114.741 333.318 114.468C333.951 114.134 334.42 113.919 334.725 113.823C335.702 113.515 336.64 113.723 337.539 114.446C338.48 115.089 339.144 115.919 339.532 116.938C341.055 116.659 342.619 116.3 344.226 115.86C345.832 115.421 347.224 115.049 348.403 114.745C349.624 114.36 350.296 114.148 350.418 114.109L350.692 114.023C350.875 113.965 351.005 114.058 351.082 114.302C351.217 114.73 351.088 115.173 350.696 115.632C350.24 116.313 348.911 117.101 346.711 117.996C344.552 118.811 342.252 119.603 339.81 120.373C339.794 121.385 339.644 122.506 339.361 123.736C339.077 124.966 338.712 126.255 338.265 127.604C337.966 128.571 337.479 129.899 336.803 131.588C336.109 133.216 335.394 134.885 334.657 136.593C333.921 138.302 333.3 139.739 332.795 140.905C333.191 140.243 333.806 139.11 334.642 137.504C335.52 135.818 336.202 134.362 336.687 133.135C336.877 132.672 337.152 131.948 337.512 130.962C337.853 129.915 338.183 128.939 338.501 128.033C338.861 127.047 339.064 126.413 339.109 126.13C338.835 128.029 338.328 129.933 337.589 131.844C336.849 133.755 336.061 135.513 335.226 137.119C334.39 138.724 333.67 140.059 333.065 141.122C332.442 142.124 332.088 142.705 332.004 142.865C330.288 146.359 328.415 149.466 326.387 152.186C324.401 154.825 322.492 156.434 320.661 157.011ZM316.75 154.822C317.055 154.726 317.392 154.519 317.762 154.201C318.318 153.623 318.99 152.774 319.777 151.653C320.625 150.513 321.495 149.333 322.385 148.113C323.153 146.931 323.986 145.528 324.883 143.903C325.76 142.217 326.693 140.279 327.68 138.089C328.542 136.139 329.456 134.039 330.424 131.788C331.373 129.476 332.272 127.112 333.121 124.697L332.152 126.412C332.444 125.85 332.78 125.106 333.159 124.181C333.581 123.176 333.938 122.392 334.23 121.83C332.299 122.305 331.141 122.569 330.756 122.624C330.733 122.765 330.661 122.855 330.539 122.894C330.417 122.932 330.289 122.738 330.154 122.31C330.115 122.188 330.067 122.036 330.009 121.853C329.933 121.609 329.886 121.355 329.87 121.091C329.24 121.223 328.598 121.526 327.942 122.001C327.287 122.476 326.627 123.255 325.961 124.337C325.231 125.641 324.274 127.285 323.087 129.269C321.901 131.254 320.721 133.471 319.548 135.922C318.355 138.311 317.302 140.824 316.389 143.461C315.536 146.078 315.028 148.721 314.863 151.391C314.788 152.219 314.867 153 315.098 153.732C315.425 154.77 315.979 154.931 316.76 154.215C316.512 154.494 316.398 154.664 316.417 154.725C316.456 154.847 316.567 154.88 316.75 154.822ZM316.76 154.215C317.727 153.239 319.154 151.38 321.041 148.637C322.969 145.815 324.793 142.555 326.514 138.859C327.079 137.674 327.729 136.328 328.462 134.822C329.176 133.255 329.878 131.759 330.569 130.333C331.261 128.907 331.785 127.802 332.142 127.019C331.277 129.17 330.455 131.141 329.677 132.929C328.941 134.638 328.216 136.276 327.502 137.843C325.804 141.398 323.959 144.697 321.966 147.742C320.034 150.766 318.299 152.924 316.76 154.215ZM348.834 147.323C347.757 147.528 346.751 147.208 345.813 146.363C344.856 145.457 344.224 144.515 343.916 143.539C343.666 142.745 343.75 141.309 344.168 139.231C344.568 137.092 345.144 134.663 345.897 131.942C346.691 129.142 347.526 126.362 348.401 123.603C349.337 120.825 350.176 118.38 350.919 116.266C351.643 114.092 352.143 112.592 352.42 111.767C351.433 113.957 350.634 115.786 350.023 117.254C349.453 118.641 349.108 119.354 348.986 119.393C348.925 119.412 349.163 118.464 349.7 116.55C350.298 114.617 351.304 111.314 352.716 106.641C353.326 106.448 354.176 106.482 355.265 106.743C356.353 107.004 357.379 107.385 358.343 107.886C359.348 108.308 359.947 108.823 360.139 109.434C359.859 110.461 359.391 111.85 358.735 113.601C358.079 115.351 357.3 117.241 356.396 119.271C355.493 121.3 354.64 123.28 353.84 125.21C353.02 127.079 352.325 128.707 351.756 130.095C351.882 129.854 352.401 129.053 353.314 127.691C354.226 126.33 355.367 124.628 356.737 122.586C358.087 120.482 359.519 118.32 361.032 116.098C362.588 113.795 364.091 111.644 365.54 109.643C366.971 107.582 368.213 105.882 369.267 104.543C370.321 103.204 371.031 102.476 371.398 102.361C371.703 102.265 372.207 102.374 372.91 102.689C373.614 103.004 374.355 103.441 375.136 104.001C375.958 104.48 376.627 105.007 377.144 105.582C377.642 106.096 377.807 106.514 377.64 106.835C377.389 107.317 376.793 108.511 375.851 110.419C374.97 112.307 373.931 114.547 372.735 117.139C371.6 119.711 370.526 122.264 369.513 124.798C368.542 127.252 367.851 129.315 367.439 130.988L372.578 124.939C372.97 124.48 372.979 124.51 372.606 125.031C372.234 125.551 371.768 126.201 371.208 126.981C370.649 127.762 370.234 128.362 369.964 128.783C369.839 129.024 369.722 129.396 369.612 129.9C369.483 130.344 369.482 130.445 369.607 130.204C370.273 129.122 371.153 127.871 372.249 126.452C373.345 125.033 374.502 123.594 375.72 122.136C376.98 120.598 378.095 119.24 379.066 118.062C378.14 118.957 377.245 119.844 376.381 120.72C375.516 121.597 374.62 122.584 373.691 123.682L374.684 122.362C375.099 121.762 375.729 120.993 376.574 120.055C377.419 119.118 378.274 118.211 379.138 117.334C380.064 116.438 380.772 115.812 381.264 115.456L379.157 118.033C379.733 117.516 380.338 116.989 380.974 116.453C381.591 115.856 382.239 115.249 382.917 114.633C383.348 114.296 383.654 114.098 383.837 114.041C384.387 113.868 384.523 114.194 384.247 115.019C384.031 115.825 383.573 116.607 382.872 117.365C381.741 118.46 380.481 119.998 379.093 121.979C377.704 123.96 376.272 126.123 374.797 128.467C373.383 130.792 372.029 133.097 370.737 135.384C369.426 137.609 368.331 139.565 367.453 141.251C365.844 140.617 364.846 139.791 364.458 138.773C364.069 137.755 363.75 136.849 363.5 136.055L363.385 135.689C363.327 135.506 363.26 135.292 363.183 135.048C363.147 134.724 363.164 134.349 363.231 133.925C363.074 133.64 362.762 133.503 362.297 133.516C361.812 133.467 361.561 133.311 361.545 133.048C361.424 131.811 361.58 130.285 362.015 128.471C362.449 126.656 362.986 124.742 363.626 122.728C364.328 120.695 365.048 118.724 365.788 116.813C366.527 114.902 367.151 113.262 367.659 111.894C368.167 110.526 368.476 109.59 368.586 109.086C368.107 109.908 367.305 111.301 366.179 113.267C365.035 115.171 363.724 117.396 362.245 119.943C360.808 122.409 359.318 125.026 357.775 127.794C356.232 130.563 354.801 133.262 353.483 135.892C352.146 138.461 351.056 140.751 350.214 142.761C349.371 144.771 348.911 146.292 348.834 147.323ZM389.728 136.14C389.362 136.256 388.647 136.011 387.584 135.407C386.602 134.844 385.56 134.2 384.458 133.473C383.399 132.667 382.609 132.077 382.089 131.704C381.887 129.15 382.054 126.38 382.588 123.393C383.165 120.326 383.974 117.252 385.016 114.172C386.058 111.092 387.158 108.196 388.316 105.482C389.534 102.749 390.614 100.429 391.556 98.5213C390.769 99.642 389.997 101.026 389.242 102.673C388.467 104.26 387.933 105.334 387.641 105.896C387.139 106.859 386.638 107.823 386.136 108.786C385.616 109.689 385.156 110.572 384.757 111.436C385.876 108.6 387.023 105.957 388.196 103.507C389.431 101.037 390.348 99.372 390.949 98.5114C391.075 98.2705 391.252 97.9799 391.48 97.6396C391.769 97.2799 392.118 97.0022 392.526 96.8065L392.998 95.7515C394.666 95.293 396.599 95.2537 398.799 95.6337C400.98 95.9526 402.983 96.6634 404.807 97.766C406.672 98.7882 407.934 100.236 408.592 102.109C408.669 102.353 408.624 102.636 408.456 102.957C408.27 103.217 408.048 103.152 407.792 102.764C407.076 101.983 406.328 101.313 405.547 100.754C404.767 100.194 403.974 99.8069 403.168 99.5913C402.442 99.4175 401.743 99.4365 401.072 99.6482C400.339 99.8791 399.745 100.335 399.288 101.016C398.356 102.316 397.324 104.151 396.193 106.521C395.103 108.811 394.03 111.263 392.976 113.877C391.982 116.472 391.122 118.958 390.395 121.334C389.729 123.692 389.354 125.588 389.27 127.024C389.501 126.481 389.95 125.669 390.615 124.587C391.28 123.505 392.007 122.403 392.794 121.283C393.562 120.101 394.226 119.12 394.785 118.34C394.972 118.08 395.375 117.55 395.995 116.75C396.616 115.951 397.257 115.111 397.919 114.231C398.642 113.332 399.23 112.643 399.683 112.165C399.722 112.287 399.461 112.738 398.902 113.519C398.404 114.28 397.772 115.15 397.008 116.129C396.243 117.108 395.519 118.007 394.838 118.826C394.218 119.626 393.845 120.146 393.72 120.387C393.241 121.209 392.669 122.161 392.003 123.243C391.399 124.306 390.836 125.289 390.315 126.191C389.795 127.093 389.46 127.736 389.312 128.118C389.267 128.401 389.285 128.563 389.365 128.605C389.446 128.646 389.539 128.516 389.645 128.214C389.944 127.248 390.499 126.133 391.309 124.871C392.119 123.609 393.02 122.319 394.013 120.999C395.048 119.599 395.959 118.339 396.747 117.218C397.679 115.917 398.527 114.777 399.292 113.798C400.099 112.739 400.803 111.778 401.404 110.918C401.061 109.617 401.24 108.587 401.94 107.83C402.702 107.053 403.356 106.679 403.902 106.708C404.306 106.715 404.933 106.785 405.781 106.921C406.67 106.976 407.497 107.151 408.262 107.447C409.007 107.682 409.344 108.112 409.273 108.739C409.154 109.85 409.299 111.482 409.709 113.634C410.161 115.706 410.657 117.597 411.195 119.306C411.965 121.747 413.113 122.727 414.639 122.246C415.433 121.996 416.366 121.232 417.439 119.954C417.831 119.495 418.15 119.227 418.394 119.15C418.577 119.092 418.697 119.155 418.755 119.338C418.832 119.582 418.795 119.996 418.644 120.581C418.473 121.105 418.346 121.447 418.263 121.607C417.78 122.632 417.126 123.643 416.3 124.642C415.516 125.56 414.605 126.183 413.568 126.51C413.14 126.645 412.694 126.718 412.228 126.731C411.762 126.744 411.268 126.665 410.744 126.494C408.891 125.938 407.292 124.697 405.947 122.772C404.663 120.829 403.78 119.094 403.299 117.568C403.184 117.201 403.078 116.866 402.982 116.561C402.947 116.236 402.921 115.942 402.905 115.679C402.407 116.44 401.576 117.742 400.412 119.585C399.291 121.348 398.043 123.352 396.671 125.597C395.279 127.78 393.95 129.843 392.683 131.786C391.417 133.729 390.432 135.18 389.728 136.14ZM423.134 123.896C422.058 124.101 421.051 123.781 420.114 122.936C419.157 122.03 418.524 121.088 418.216 120.112C417.966 119.318 418.05 117.883 418.469 115.804C418.868 113.665 419.444 111.236 420.197 108.515C420.992 105.715 421.826 102.935 422.701 100.176C423.637 97.3984 424.477 94.9528 425.22 92.8396C425.943 90.6653 426.444 89.1655 426.72 88.3402C425.733 90.5303 424.934 92.3593 424.323 93.8269C423.754 95.2143 423.408 95.9272 423.286 95.9657C423.225 95.9849 423.463 95.0375 424.001 93.1233C424.599 91.1899 425.604 87.8868 427.016 83.2138C427.627 83.0214 428.476 83.0555 429.565 83.3161C430.654 83.5768 431.68 83.9579 432.643 84.4594C433.649 84.8806 434.247 85.3964 434.44 86.0068C434.16 87.0346 433.692 88.4236 433.036 90.1739C432.38 91.9241 431.6 93.8141 430.697 95.8437C429.793 97.8733 428.941 99.8532 428.14 101.783C427.32 103.652 426.626 105.281 426.057 106.668C426.182 106.427 426.701 105.626 427.614 104.264C428.527 102.903 429.668 101.201 431.037 99.1587C432.387 97.0554 433.819 94.8927 435.333 92.6707C436.889 90.3683 438.391 88.2169 439.841 86.2164C441.271 84.1549 442.513 82.4547 443.567 81.1157C444.622 79.7767 445.332 79.0495 445.698 78.9341C446.003 78.8378 446.507 78.9473 447.211 79.2624C447.914 79.5775 448.656 80.0146 449.436 80.5739C450.258 81.0528 450.928 81.5799 451.445 82.1551C451.942 82.6693 452.107 83.0869 451.94 83.408C451.69 83.8897 451.093 85.0844 450.151 86.9919C449.27 88.8802 448.232 91.1202 447.036 93.7118C445.901 96.2841 444.827 98.8372 443.814 101.371C442.843 103.825 442.151 105.888 441.739 107.561L446.878 101.512C447.27 101.053 447.28 101.084 446.907 101.604C446.534 102.124 446.068 102.774 445.509 103.554C444.95 104.335 444.535 104.935 444.265 105.356C444.14 105.597 444.022 105.969 443.913 106.474C443.784 106.917 443.782 107.018 443.908 106.777C444.573 105.695 445.454 104.444 446.55 103.025C447.646 101.606 448.803 100.167 450.021 98.7095C451.281 97.1715 452.396 95.8132 453.366 94.6349C452.441 95.5306 451.546 96.4167 450.681 97.2932C449.817 98.1698 448.92 99.1571 447.992 100.255L448.985 98.9355C449.399 98.335 450.029 97.566 450.874 96.6284C451.72 95.6909 452.574 94.7839 453.439 93.9074C454.364 93.0116 455.073 92.3856 455.564 92.0292L453.458 94.606C454.033 94.0891 454.639 93.5626 455.275 93.0265C455.892 92.4293 456.539 91.8225 457.217 91.2061C457.648 90.869 457.955 90.6716 458.138 90.6139C458.687 90.4407 458.824 90.7667 458.547 91.5921C458.332 92.3983 457.873 93.1802 457.173 93.9379C456.042 95.0327 454.782 96.5708 453.393 98.552C452.005 100.533 450.573 102.696 449.098 105.04C447.683 107.365 446.33 109.671 445.038 111.957C443.726 114.182 442.632 116.138 441.754 117.824C440.145 117.191 439.146 116.365 438.758 115.346C438.37 114.328 438.051 113.422 437.801 112.628L437.685 112.262C437.627 112.079 437.56 111.865 437.483 111.621C437.448 111.297 437.464 110.923 437.532 110.499C437.374 110.213 437.063 110.076 436.597 110.089C436.112 110.04 435.862 109.884 435.846 109.621C435.724 108.384 435.881 106.859 436.315 105.044C436.75 103.229 437.287 101.315 437.927 99.3015C438.628 97.2686 439.349 95.2967 440.088 93.3859C440.828 91.475 441.452 89.8355 441.96 88.4674C442.468 87.0993 442.777 86.1631 442.886 85.6589C442.407 86.4809 441.605 87.8746 440.48 89.8399C439.336 91.7442 438.024 93.9695 436.545 96.516C435.109 98.9823 433.619 101.599 432.076 104.368C430.533 107.136 429.102 109.835 427.784 112.465C426.446 115.034 425.357 117.324 424.514 119.334C423.672 121.344 423.212 122.865 423.134 123.896ZM462.78 103.645L462.963 103.587L462.934 103.496L463.18 103.318C464.064 102.502 465.344 101.562 467.021 100.496C468.759 99.4111 470.425 98.4161 472.019 97.511C473.613 96.6059 474.745 96.0475 475.416 95.8358C476.271 95.5664 477.296 95.4111 478.491 95.3698C479.727 95.2483 480.665 95.4559 481.304 95.9926C480.559 95.7578 479.761 95.6739 478.91 95.741C478.058 95.8081 477.165 95.9554 476.231 96.1831C477.043 95.9939 477.784 95.8947 478.452 95.8854C479.181 95.8568 479.838 95.9181 480.422 96.0693C481.652 96.3525 482.421 96.9824 482.729 97.959C483.037 98.9357 482.987 100.159 482.578 101.63C482.17 103.101 481.763 104.471 481.358 105.74C481.312 106.022 481.092 106.494 480.697 107.156C480.301 107.817 479.951 108.196 479.646 108.293C479.524 108.331 479.434 108.259 479.376 108.076C479.319 107.892 479.295 107.497 479.305 106.89C479.321 105.878 479.243 105.098 479.07 104.549C478.588 103.023 477.219 102.616 474.96 103.328C474.472 103.482 473.932 103.685 473.341 103.939C472.75 104.192 472.138 104.486 471.505 104.82C470.281 105.407 468.911 106.275 467.394 107.425C465.877 108.574 464.462 109.725 463.148 110.877C461.894 112.011 460.988 112.967 460.429 113.748C460.262 114.069 459.995 114.287 459.629 114.403C458.957 114.614 458.232 114.44 457.451 113.881C456.671 113.322 456.08 112.938 455.679 112.729C455.358 112.562 455.12 112.234 454.966 111.746C454.831 111.318 454.788 110.862 454.837 110.377C454.824 109.912 454.964 109.398 455.257 108.836C455.321 108.614 455.355 108.402 455.358 108.2C455.422 107.978 455.487 107.757 455.551 107.535C456.059 106.167 456.959 104.34 458.252 102.053C459.525 99.7057 461.003 97.1592 462.688 94.4136C464.372 91.668 466.097 88.9434 467.861 86.2396C469.687 83.5166 471.347 81.0135 472.842 78.7304C474.397 76.428 475.641 74.6266 476.573 73.3262C474.295 75.2524 472.1 77.018 469.989 78.6231C467.859 80.1672 465.848 81.2375 463.956 81.8341C463.162 82.0843 462.401 82.2237 461.672 82.2523C460.82 82.3193 460.193 81.712 459.789 80.4302C459.5 79.5146 459.386 78.4096 459.448 77.1152C459.51 75.8207 459.72 74.6806 460.081 73.6946C460.441 72.7087 461.018 72.0906 461.811 71.8404C462.238 71.7057 462.5 71.7909 462.596 72.0961C462.397 73.1657 462.393 74.0056 462.586 74.616C462.836 75.4095 463.305 75.8321 463.992 75.8838C464.74 75.9162 465.481 75.817 466.213 75.586C468.044 75.0087 469.951 74.1391 471.934 72.9772C473.977 71.7961 476.272 70.6696 478.82 69.5979C479.308 69.444 479.883 69.5647 480.545 69.9601C481.206 70.3555 481.805 70.8713 482.341 71.5075C482.919 72.0634 483.285 72.5856 483.439 73.0739C483.497 73.257 483.45 73.6408 483.299 74.2253C483.189 74.7296 482.939 75.2113 482.547 75.6704C481.245 77.2887 480.138 78.7786 479.225 80.1401C478.354 81.4214 477.186 82.9305 475.72 84.6676C475.846 84.4267 475.929 84.2662 475.971 84.1859C476.055 84.0253 476.231 83.7347 476.501 83.3141C476.752 82.8324 477.25 82.0713 477.996 81.0309C478.783 79.9103 479.974 78.2598 481.568 76.0795C480.415 77.3157 479.071 79.0142 477.538 81.1753C476.005 83.3363 474.419 85.6483 472.78 88.1112C471.182 90.4939 469.667 92.8171 468.233 95.081C466.78 97.2838 465.565 99.1768 464.588 100.76C463.672 102.324 463.121 103.236 462.934 103.496L462.78 103.645ZM469.257 99.2877C468.686 99.6022 467.786 100.154 466.559 100.944C465.331 101.733 464.205 102.525 463.18 103.318L463.026 103.467C462.965 103.486 462.913 103.536 462.871 103.616C462.871 103.616 462.902 103.607 462.963 103.587L462.871 103.616C462.913 103.536 462.965 103.486 463.026 103.467C463.803 102.953 464.703 102.401 465.725 101.811C466.727 101.159 467.668 100.527 468.549 99.9137C469.143 99.4578 469.982 98.925 471.065 98.3152C472.147 97.7054 473.289 97.1775 474.491 96.7316C472.759 97.4118 471.015 98.2638 469.257 99.2877ZM495.322 102.846C494.956 102.962 494.242 102.717 493.179 102.113C492.196 101.551 491.154 100.906 490.053 100.18C488.993 99.373 488.203 98.7832 487.683 98.4104C487.482 95.8567 487.648 93.0864 488.183 90.0994C488.759 87.0321 489.568 83.9585 490.61 80.8786C491.653 77.7987 492.752 74.9019 493.91 72.1882C495.129 69.4553 496.209 67.1351 497.151 65.2275C496.363 66.3482 495.592 67.7322 494.836 69.3797C494.061 70.9661 493.528 72.0403 493.235 72.6023C492.734 73.5657 492.232 74.5291 491.731 75.4925C491.21 76.3948 490.75 77.278 490.352 78.1418C491.471 75.3061 492.617 72.663 493.79 70.2128C495.025 67.7432 495.943 66.0782 496.544 65.2176C496.669 64.9768 496.846 64.6862 497.074 64.3458C497.363 63.9862 497.712 63.7085 498.12 63.5127L498.593 62.4578C500.26 61.9992 502.194 61.9599 504.394 62.3399C506.575 62.6589 508.577 63.3696 510.401 64.4722C512.267 65.4945 513.528 66.9421 514.186 68.815C514.263 69.0591 514.218 69.3418 514.051 69.6629C513.864 69.923 513.643 69.8587 513.386 69.4699C512.67 68.689 511.922 68.019 511.142 67.4597C510.361 66.9005 509.568 66.5131 508.762 66.2975C508.036 66.1237 507.337 66.1427 506.666 66.3544C505.934 66.5853 505.339 67.0412 504.883 67.7219C503.951 69.0224 502.919 70.8576 501.787 73.2276C500.697 75.5174 499.625 77.9693 498.57 80.5835C497.576 83.1784 496.716 85.6641 495.989 88.0407C495.323 90.3981 494.948 92.2946 494.864 93.7304C495.095 93.1877 495.544 92.3752 496.209 91.293C496.875 90.2109 497.601 89.1095 498.389 87.9888C499.157 86.8071 499.82 85.8261 500.38 85.0458C500.566 84.7857 500.969 84.2559 501.59 83.4564C502.21 82.6569 502.851 81.8172 503.513 80.9374C504.236 80.0383 504.825 79.3496 505.278 78.8712C505.316 78.9933 505.056 79.4445 504.497 80.2247C503.998 80.9858 503.367 81.856 502.602 82.8353C501.837 83.8146 501.114 84.7137 500.433 85.5325C499.812 86.332 499.439 86.8522 499.314 87.093C498.835 87.9151 498.263 88.8672 497.597 89.9494C496.993 91.0123 496.431 91.995 495.91 92.8973C495.389 93.7997 495.055 94.442 494.907 94.8241C494.862 95.1068 494.879 95.269 494.96 95.3108C495.04 95.3526 495.133 95.2225 495.239 94.9206C495.538 93.9539 496.093 92.8396 496.903 91.5776C497.713 90.3156 498.615 89.0248 499.608 87.7051C500.643 86.3051 501.554 85.0447 502.341 83.9241C503.273 82.6236 504.122 81.4837 504.887 80.5044C505.693 79.4447 506.397 78.4846 506.998 77.6241C506.655 76.323 506.834 75.2937 507.534 74.5359C508.296 73.7589 508.95 73.385 509.496 73.4142C509.901 73.4208 510.527 73.4917 511.375 73.627C512.265 73.682 513.092 73.8574 513.856 74.1533C514.601 74.3881 514.938 74.8187 514.867 75.445C514.748 76.5563 514.893 78.1881 515.303 80.3404C515.755 82.4124 516.251 84.3029 516.79 86.012C517.56 88.4535 518.707 89.4337 520.233 88.9525C521.027 88.7023 521.96 87.9383 523.034 86.6604C523.426 86.2012 523.744 85.9331 523.988 85.8562C524.171 85.7984 524.292 85.8611 524.349 86.0442C524.426 86.2884 524.389 86.7027 524.238 87.2873C524.068 87.8107 523.94 88.1528 523.857 88.3133C523.375 89.3378 522.721 90.3493 521.895 91.3479C521.11 92.2662 520.2 92.8889 519.162 93.2161C518.735 93.3508 518.288 93.4245 517.822 93.4371C517.357 93.4498 516.862 93.3708 516.338 93.2004C514.485 92.6438 512.886 91.4033 511.541 89.4786C510.257 87.5348 509.375 85.7999 508.894 84.2739C508.778 83.9077 508.672 83.572 508.576 83.2668C508.541 82.9424 508.515 82.6484 508.499 82.385C508.001 83.1461 507.17 84.4482 506.007 86.2914C504.885 88.0543 503.638 90.0581 502.265 92.3027C500.873 94.4863 499.544 96.5495 498.278 98.4922C497.011 100.435 496.026 101.886 495.322 102.846Z" fill="#FAF870"/>
</svg>
